<svg width="120" height="31" viewBox="0 0 120 31" fill="none" xmlns="http://www.w3.org/2000/svg">
<g clip-path="url(#clip0_19_202)">
<path d="M23.2919 1.49836C25.7777 1.62753 27.8196 2.4994 29.4177 4.11399C31.0157 5.69626 32.1698 7.50459 32.88 9.53898C33.5902 11.5734 33.9453 13.6562 33.9453 15.7874C33.9453 17.9187 33.5902 20.0015 32.88 22.0359C32.2053 24.0702 31.0512 25.8947 29.4177 27.5093C27.8196 29.0916 25.7777 29.9473 23.2919 30.0765H3.68965C2.73085 30.0442 1.91409 29.7374 1.23937 29.1562C0.600163 28.5426 0.262806 27.7999 0.227295 26.928V14.9155C0.262806 14.0114 0.635677 13.2687 1.3459 12.6874C2.05613 12.0739 2.9084 11.7671 3.90272 11.7671C4.86152 11.7994 5.6783 12.1223 6.35302 12.7359C7.0277 13.3171 7.38284 14.0437 7.41834 14.9155V22.278C7.41834 23.1499 7.91552 23.5859 8.90984 23.5859H21.4808C22.8303 23.5213 23.9489 23.053 24.8367 22.1812C25.7244 21.3093 26.3637 20.3244 26.7543 19.2265C27.1804 18.0963 27.3935 16.9499 27.3935 15.7874C27.3935 14.6249 27.1804 13.4947 26.7543 12.3968C26.3637 11.2666 25.7244 10.2655 24.8367 9.39369C23.9489 8.52181 22.8303 8.05358 21.4808 7.98898H3.68965C1.55897 7.82753 0.404852 6.77804 0.227295 4.84054C0.227295 3.93639 0.546895 3.16139 1.1861 2.51555C1.86082 1.86972 2.69534 1.53065 3.68965 1.49836H23.2919ZM51.0441 0.190552C52.2868 0.190552 53.4946 0.384302 54.6664 0.771803C55.8737 1.1593 57.0278 1.7244 58.1287 2.46711C58.3059 2.62857 58.5014 2.79003 58.7146 2.95149C58.8918 2.79003 59.0873 2.62857 59.3005 2.46711C60.4014 1.7244 61.5378 1.1593 62.7096 0.771803C63.9168 0.384302 65.1241 0.190552 66.3318 0.190552C67.5746 0.190552 68.7818 0.384302 69.9537 0.771803C71.1614 1.1593 72.2978 1.74055 73.3628 2.51555C74.4637 3.25826 75.4228 4.25931 76.2396 5.51869C77.0919 6.77804 77.5178 8.27959 77.5178 10.0234V27.5093C77.3046 29.4468 76.1328 30.4963 74.0023 30.6577C73.0078 30.6577 72.1378 30.3671 71.3918 29.7859C70.6818 29.1723 70.3268 28.4135 70.3268 27.5093V10.4109C70.3268 9.63586 70.1668 8.99003 69.8473 8.47336C69.5278 7.92442 69.1728 7.50459 68.7819 7.21398C68.3914 6.89108 67.9828 6.66503 67.5568 6.53586C67.1309 6.37442 66.7046 6.29369 66.2782 6.29369C65.8523 6.29369 65.4264 6.37442 65 6.53586C64.6096 6.66503 64.2187 6.89108 63.8282 7.21398C63.4373 7.50459 63.0823 7.92442 62.7628 8.47336C62.4432 8.99003 62.2655 9.63586 62.23 10.4109V27.5093C62.0173 29.4468 60.845 30.4963 58.7146 30.6577C57.72 30.6577 56.85 30.3671 56.1046 29.7859C55.3941 29.1723 55.0391 28.4135 55.0391 27.5093V10.4109C55.0391 9.63586 54.8791 8.99003 54.5596 8.47336C54.24 7.92442 53.885 7.50459 53.4946 7.21398C53.1037 6.89108 52.6955 6.66503 52.2691 6.53586C51.8432 6.37442 51.4168 6.29369 50.9909 6.29369C50.5646 6.29369 50.1387 6.37442 49.7123 6.53586C49.3218 6.66503 48.9309 6.89108 48.5405 7.21398C48.15 7.50459 47.7946 7.92442 47.475 8.47336C47.1555 8.99003 46.9782 9.63586 46.9423 10.4109V27.5093C46.765 29.4468 45.6109 30.4963 43.4801 30.6577C42.4858 30.6577 41.6158 30.3671 40.8701 29.7859C40.1598 29.1723 39.8047 28.4135 39.8047 27.5093V10.0234C39.8758 8.27959 40.3196 6.77804 41.1364 5.51869C41.9532 4.25931 42.9119 3.25826 44.0128 2.51555C45.1137 1.74055 46.25 1.1593 47.4218 0.771803C48.6291 0.384302 49.8368 0.190552 51.0441 0.190552ZM118.693 4.74369C118.693 5.64786 118.338 6.4067 117.628 7.02025C116.953 7.66608 116.119 7.98898 115.124 7.98898H93.8173C93.1428 8.02126 92.5746 8.16659 92.1128 8.42492C91.6868 8.65097 91.3673 8.92547 91.1541 9.24836C90.9409 9.53898 90.8346 9.84575 90.8346 10.1687C90.8346 10.4916 90.9409 10.8145 91.1541 11.1374C91.3673 11.428 91.6868 11.7025 92.1128 11.9609C92.5746 12.1869 93.1428 12.3161 93.8173 12.3484H108.945C111.431 12.4129 113.473 12.9458 115.071 13.9468C116.705 14.9155 117.859 16.0458 118.533 17.3374C119.244 18.5968 119.599 19.8885 119.599 21.2124C119.599 22.5041 119.244 23.7958 118.533 25.0874C117.823 26.3468 116.669 27.477 115.071 28.478C113.473 29.4468 111.431 29.9312 108.945 29.9312H108.626C108.413 29.9635 108.2 29.9796 107.986 29.9796H87.8514C86.8573 29.9796 86.005 29.6729 85.2946 29.0593C84.62 28.4135 84.2828 27.6385 84.2828 26.7343C84.2828 25.8301 84.6378 25.0713 85.3482 24.4578C86.0228 23.8119 86.8573 23.489 87.8514 23.489H109.265C109.94 23.5213 110.49 23.4083 110.916 23.1499C111.378 22.8916 111.715 22.601 111.928 22.278C112.141 21.9229 112.248 21.5676 112.248 21.2124C112.248 20.9864 112.141 20.6796 111.928 20.2921C111.715 19.8723 111.378 19.5333 110.916 19.2749C110.49 19.0166 109.94 18.8713 109.265 18.839H94.1373C91.6514 18.7744 89.5919 18.2577 87.9582 17.289C86.36 16.3202 85.2059 15.2223 84.4959 13.9952C83.8209 12.7359 83.4837 11.4604 83.4837 10.1687C83.4837 8.90931 83.8387 7.66608 84.5491 6.43898C85.2591 5.17959 86.4132 4.06555 88.0114 3.0968C89.6096 2.12805 91.6514 1.61139 94.1373 1.5468H94.4568C94.6696 1.51451 94.8828 1.49836 95.0959 1.49836H115.124C116.119 1.49836 116.953 1.82128 117.628 2.46711C118.338 3.08065 118.693 3.83951 118.693 4.74369Z" fill="#6C4AFF"/>
</g>
<defs>
<clipPath id="clip0_19_202">
<rect width="120" height="31" fill="white"/>
</clipPath>
</defs>
</svg>
