<svg width="42" height="42" viewBox="0 0 42 42" fill="none" xmlns="http://www.w3.org/2000/svg">
<path d="M8.39998 4.9C6.41664 6.88333 6.41664 35.1167 8.39998 37.1C10.2666 38.9667 31.7333 38.9667 33.6 37.1C34.5333 36.1667 35 31.7333 35 25.0833V14.4667L29.4 8.98333C24.0333 3.61666 23.5666 3.5 16.8 3.5C12.95 3.5 9.21664 4.08333 8.39998 4.9ZM27.65 10.7333C29.75 12.8333 31.5 14.9333 31.5 15.5167C31.5 15.9833 29.5166 16.3333 27.1833 16.1C22.9833 15.75 22.75 15.5167 22.4 11.3167C22.1666 8.98333 22.4 7 22.8666 7C23.45 7 25.55 8.63333 27.65 10.7333Z" fill="black"/>
</svg>
