<svg width="36" height="36" viewBox="0 0 36 36" fill="none" xmlns="http://www.w3.org/2000/svg">
<g clip-path="url(#clip0_21_230)">
<path d="M17.1818 0.156227C16.9216 0.286915 14.6931 2.35608 8.71039 8.00454C4.25326 12.23 0.520233 15.773 0.435871 15.8746C0.147634 16.2159 0 16.6224 0 17.1089C0 17.7115 0.119513 17.9801 0.646776 18.5537C1.18107 19.1272 1.631 19.3741 2.17232 19.3741C2.79801 19.3741 3.03704 19.2579 3.7963 18.5609L4.49931 17.9148V26.2495V34.5843L4.66804 34.9473C4.86488 35.3829 5.13203 35.6515 5.55384 35.8475C5.85614 35.9927 5.99674 36 9.42044 36C12.8441 36 12.9847 35.9927 13.287 35.8475C13.7088 35.6515 13.976 35.3829 14.1728 34.9473L14.3416 34.5843V28.6817V22.7864H18.3136H22.2786L22.2997 28.718C22.3208 34.6569 22.3208 34.6569 22.4755 34.9981C22.6583 35.4047 22.9184 35.6805 23.305 35.8621C23.5652 35.9855 23.8393 36 27.3474 36C30.8414 36 31.1296 35.9855 31.3897 35.8621C31.7623 35.6878 32.1139 35.3175 32.2966 34.911C32.4443 34.5843 32.4443 34.5262 32.4654 26.3947L32.4794 18.2052L32.8801 18.5537C33.2527 18.8804 33.2949 18.9022 33.6675 18.9022C34.1807 18.8949 34.6025 18.648 35.2071 18.0019C35.7906 17.363 35.9945 16.9419 35.9945 16.3465C35.9945 15.4463 36.5147 15.969 27.4247 7.75769C22.9043 3.67018 19.0799 0.257874 18.9323 0.178009C18.7495 0.0836258 18.4823 0.0255432 18.1027 0.0110245C17.6176 -0.0180168 17.4911 0.00376511 17.1818 0.156227Z" fill="black"/>
</g>
<defs>
<clipPath id="clip0_21_230">
<rect width="36" height="36" fill="white"/>
</clipPath>
</defs>
</svg>
