<svg width="42" height="42" viewBox="0 0 42 42" fill="none" xmlns="http://www.w3.org/2000/svg">
<path d="M2.33337 21C2.33337 31.6167 2.68337 33.8334 4.08337 33.8334C5.01671 33.8334 5.83337 32.7834 5.83337 31.5C5.83337 29.2834 6.65004 29.1667 21.5834 29.1667C36.5167 29.1667 37.3334 29.2834 37.3334 31.5C37.3334 32.7834 38.15 33.8334 39.0834 33.8334C40.4834 33.8334 40.8334 32.0834 40.8334 25.0834C40.8334 13.3 39.3167 11.6667 28 11.6667H19.8334V18.0834V24.5H12.8334H5.83337V16.3334C5.83337 9.80004 5.48337 8.16671 4.08337 8.16671C2.68337 8.16671 2.33337 10.3834 2.33337 21Z" fill="black"/>
<path d="M9.33333 13.3C6.06666 17.3834 10.6167 24.15 14.9333 21.4667C19.0167 18.9 17.5 11.6667 12.8333 11.6667C11.6667 11.6667 10.15 12.4834 9.33333 13.3Z" fill="black"/>
</svg>
