<svg width="40" height="40" viewBox="0 0 40 40" fill="none" xmlns="http://www.w3.org/2000/svg">
<path d="M15.5554 6.66668C12.7777 9.44446 12.6666 13.5556 15.3332 15.8889C19.6666 19.7778 26.6666 16.8889 26.6666 11.3334C26.6666 8.22224 22.8888 4.44446 19.9999 4.44446C18.7777 4.44446 16.7777 5.44446 15.5554 6.66668Z" fill="black"/>
<path d="M6.77773 25.1111C3.99995 28.6667 3.77773 31.4445 6.22217 33.7778C8.77773 36.3333 31.2222 36.3333 33.7777 33.7778C36.2222 31.4445 36 28.6667 33.2222 25.1111C31 22.3333 30.5555 22.2222 20 22.2222C9.44439 22.2222 8.99995 22.3333 6.77773 25.1111Z" fill="black"/>
</svg>
